<mxfile host="app.diagrams.net" agent="Mozilla/5.0 (Windows NT 10.0; Win64; x64) AppleWebKit/537.36 (KHTML, like Gecko) Chrome/127.0.0.0 Safari/537.36 Edg/127.0.0.0" version="24.7.6">
  <diagram name="第 1 页" id="hImMquwPHq1OFER629WR">
    <mxGraphModel dx="1386" dy="749" grid="1" gridSize="10" guides="1" tooltips="1" connect="1" arrows="1" fold="1" page="1" pageScale="1" pageWidth="1169" pageHeight="827" math="0" shadow="0">
      <root>
        <mxCell id="0" />
        <mxCell id="1" parent="0" />
        <mxCell id="MSOLa-IoRbTIZg2SJr0C-1" value="" style="whiteSpace=wrap;html=1;aspect=fixed;" parent="1" vertex="1">
          <mxGeometry x="823" y="146" width="193" height="193" as="geometry" />
        </mxCell>
        <mxCell id="MSOLa-IoRbTIZg2SJr0C-2" value="" style="rounded=0;whiteSpace=wrap;html=1;" parent="1" vertex="1">
          <mxGeometry x="690" y="269.5" width="4" height="10" as="geometry" />
        </mxCell>
        <mxCell id="MSOLa-IoRbTIZg2SJr0C-3" value="" style="rounded=0;whiteSpace=wrap;html=1;" parent="1" vertex="1">
          <mxGeometry x="684" y="279.5" width="16" height="2" as="geometry" />
        </mxCell>
        <mxCell id="MSOLa-IoRbTIZg2SJr0C-4" value="" style="rounded=0;whiteSpace=wrap;html=1;fontSize=21;" parent="1" vertex="1">
          <mxGeometry x="632.4399999999999" y="201" width="119.12" height="68.5" as="geometry" />
        </mxCell>
        <mxCell id="MSOLa-IoRbTIZg2SJr0C-5" value="GPU&amp;nbsp; &amp;nbsp; &amp;nbsp;" style="rounded=0;whiteSpace=wrap;html=1;fontSize=20;" parent="1" vertex="1">
          <mxGeometry x="853" y="219.5" width="155" height="107" as="geometry" />
        </mxCell>
        <mxCell id="MSOLa-IoRbTIZg2SJr0C-6" value="内存条" style="rounded=0;whiteSpace=wrap;html=1;fontSize=20;" parent="1" vertex="1">
          <mxGeometry x="853.5" y="160" width="154" height="47" as="geometry" />
        </mxCell>
        <mxCell id="MSOLa-IoRbTIZg2SJr0C-7" value="CPU" style="rounded=0;whiteSpace=wrap;html=1;" parent="1" vertex="1">
          <mxGeometry x="870" y="292.5" width="39" height="34.5" as="geometry" />
        </mxCell>
        <mxCell id="MSOLa-IoRbTIZg2SJr0C-8" value="本地主机" style="text;html=1;align=center;verticalAlign=middle;whiteSpace=wrap;rounded=0;fontSize=30;fontColor=#00fbff;" parent="1" vertex="1">
          <mxGeometry x="838.5" y="81" width="145" height="52" as="geometry" />
        </mxCell>
        <mxCell id="MSOLa-IoRbTIZg2SJr0C-10" value="" style="rounded=0;whiteSpace=wrap;html=1;" parent="1" vertex="1">
          <mxGeometry x="220" y="347" width="211" height="156" as="geometry" />
        </mxCell>
        <mxCell id="MSOLa-IoRbTIZg2SJr0C-11" value="" style="rounded=0;whiteSpace=wrap;html=1;" parent="1" vertex="1">
          <mxGeometry x="322" y="556" width="212" height="156" as="geometry" />
        </mxCell>
        <mxCell id="MSOLa-IoRbTIZg2SJr0C-12" value="服务器" style="text;html=1;align=center;verticalAlign=middle;whiteSpace=wrap;rounded=0;fontSize=30;" parent="1" vertex="1">
          <mxGeometry x="78" y="403" width="127" height="42" as="geometry" />
        </mxCell>
        <mxCell id="MSOLa-IoRbTIZg2SJr0C-13" value="" style="endArrow=none;html=1;rounded=0;entryX=-0.003;entryY=0.676;entryDx=0;entryDy=0;entryPerimeter=0;exitX=0;exitY=0.75;exitDx=0;exitDy=0;" parent="1" source="MSOLa-IoRbTIZg2SJr0C-1" target="MSOLa-IoRbTIZg2SJr0C-5" edge="1">
          <mxGeometry width="50" height="50" relative="1" as="geometry">
            <mxPoint x="808" y="327" as="sourcePoint" />
            <mxPoint x="858" y="277" as="targetPoint" />
          </mxGeometry>
        </mxCell>
        <mxCell id="MSOLa-IoRbTIZg2SJr0C-14" value="云存储" style="text;html=1;align=center;verticalAlign=middle;whiteSpace=wrap;rounded=0;fontSize=30;" parent="1" vertex="1">
          <mxGeometry x="157" y="581.5" width="165" height="105" as="geometry" />
        </mxCell>
        <mxCell id="MSOLa-IoRbTIZg2SJr0C-15" value="硬盘&lt;div&gt;&lt;br&gt;&lt;/div&gt;&lt;div&gt;&lt;br&gt;&lt;/div&gt;" style="rounded=0;whiteSpace=wrap;html=1;fontSize=20;" parent="1" vertex="1">
          <mxGeometry x="335" y="571" width="133" height="124" as="geometry" />
        </mxCell>
        <mxCell id="MSOLa-IoRbTIZg2SJr0C-16" value="超级CPU&lt;div&gt;&lt;br&gt;&lt;/div&gt;&lt;div&gt;&lt;br&gt;&lt;/div&gt;" style="rounded=0;whiteSpace=wrap;html=1;fontSize=20;" parent="1" vertex="1">
          <mxGeometry x="233" y="360" width="144" height="128" as="geometry" />
        </mxCell>
        <mxCell id="MSOLa-IoRbTIZg2SJr0C-17" value="网络模块" style="rounded=0;whiteSpace=wrap;html=1;fontSize=8;" parent="1" vertex="1">
          <mxGeometry x="833" y="292" width="37" height="36" as="geometry" />
        </mxCell>
        <mxCell id="MSOLa-IoRbTIZg2SJr0C-18" value="网络模块" style="rounded=0;whiteSpace=wrap;html=1;fontSize=8;" parent="1" vertex="1">
          <mxGeometry x="386" y="360" width="37" height="34" as="geometry" />
        </mxCell>
        <mxCell id="MSOLa-IoRbTIZg2SJr0C-19" value="网络模块" style="rounded=0;whiteSpace=wrap;html=1;fontSize=8;" parent="1" vertex="1">
          <mxGeometry x="481" y="571" width="40" height="38" as="geometry" />
        </mxCell>
        <mxCell id="MSOLa-IoRbTIZg2SJr0C-20" value="" style="endArrow=none;html=1;rounded=0;entryX=0.5;entryY=1;entryDx=0;entryDy=0;exitX=0.5;exitY=0;exitDx=0;exitDy=0;" parent="1" source="MSOLa-IoRbTIZg2SJr0C-5" target="MSOLa-IoRbTIZg2SJr0C-6" edge="1">
          <mxGeometry width="50" height="50" relative="1" as="geometry">
            <mxPoint x="635" y="386" as="sourcePoint" />
            <mxPoint x="685" y="336" as="targetPoint" />
          </mxGeometry>
        </mxCell>
        <mxCell id="MSOLa-IoRbTIZg2SJr0C-21" value="通过本地主机的网络模块将指令传输至云端服务器" style="text;html=1;align=center;verticalAlign=middle;whiteSpace=wrap;rounded=0;" parent="1" vertex="1">
          <mxGeometry x="468" y="327" width="167" height="28" as="geometry" />
        </mxCell>
        <mxCell id="MSOLa-IoRbTIZg2SJr0C-22" value="" style="endArrow=classic;html=1;rounded=0;entryX=1;entryY=1;entryDx=0;entryDy=0;exitX=0;exitY=0.5;exitDx=0;exitDy=0;" parent="1" source="MSOLa-IoRbTIZg2SJr0C-17" target="MSOLa-IoRbTIZg2SJr0C-18" edge="1">
          <mxGeometry width="50" height="50" relative="1" as="geometry">
            <mxPoint x="1007" y="608" as="sourcePoint" />
            <mxPoint x="1007" y="471" as="targetPoint" />
          </mxGeometry>
        </mxCell>
        <mxCell id="MSOLa-IoRbTIZg2SJr0C-23" value="" style="shape=actor;whiteSpace=wrap;html=1;" parent="1" vertex="1">
          <mxGeometry x="570" y="209.5" width="40" height="60" as="geometry" />
        </mxCell>
        <mxCell id="MSOLa-IoRbTIZg2SJr0C-24" value="终端（起点）" style="text;html=1;align=center;verticalAlign=middle;whiteSpace=wrap;rounded=0;fontColor=#00eeff;fontSize=30;" parent="1" vertex="1">
          <mxGeometry x="585" y="146" width="192.5" height="48" as="geometry" />
        </mxCell>
        <mxCell id="MSOLa-IoRbTIZg2SJr0C-25" value="输入设备" style="text;html=1;align=center;verticalAlign=middle;whiteSpace=wrap;rounded=0;fontSize=16;" parent="1" vertex="1">
          <mxGeometry x="634.56" y="219.5" width="117" height="40" as="geometry" />
        </mxCell>
        <mxCell id="MSOLa-IoRbTIZg2SJr0C-26" value="" style="endArrow=classic;html=1;rounded=0;entryX=0;entryY=0.75;entryDx=0;entryDy=0;exitX=1;exitY=1;exitDx=0;exitDy=0;" parent="1" source="MSOLa-IoRbTIZg2SJr0C-25" target="MSOLa-IoRbTIZg2SJr0C-1" edge="1">
          <mxGeometry width="50" height="50" relative="1" as="geometry">
            <mxPoint x="626" y="382" as="sourcePoint" />
            <mxPoint x="676" y="332" as="targetPoint" />
          </mxGeometry>
        </mxCell>
        <mxCell id="MSOLa-IoRbTIZg2SJr0C-27" value="输入指令" style="text;html=1;align=center;verticalAlign=middle;whiteSpace=wrap;rounded=0;" parent="1" vertex="1">
          <mxGeometry x="759" y="239.5" width="60" height="30" as="geometry" />
        </mxCell>
        <mxCell id="MSOLa-IoRbTIZg2SJr0C-28" value="1" style="text;html=1;align=center;verticalAlign=middle;rounded=0;fontColor=#ff0000;" parent="1" vertex="1">
          <mxGeometry x="759" y="220.25" width="60" height="30" as="geometry" />
        </mxCell>
        <mxCell id="MSOLa-IoRbTIZg2SJr0C-29" value="2" style="text;html=1;align=center;verticalAlign=middle;rounded=0;fontColor=#ff0000;" parent="1" vertex="1">
          <mxGeometry x="525" y="301.25" width="60" height="30" as="geometry" />
        </mxCell>
        <mxCell id="MSOLa-IoRbTIZg2SJr0C-30" value="" style="endArrow=none;html=1;rounded=0;exitX=1;exitY=0;exitDx=0;exitDy=0;entryX=0;entryY=0;entryDx=0;entryDy=0;" parent="1" source="MSOLa-IoRbTIZg2SJr0C-16" target="MSOLa-IoRbTIZg2SJr0C-18" edge="1">
          <mxGeometry width="50" height="50" relative="1" as="geometry">
            <mxPoint x="515" y="405" as="sourcePoint" />
            <mxPoint x="385" y="376" as="targetPoint" />
          </mxGeometry>
        </mxCell>
        <mxCell id="MSOLa-IoRbTIZg2SJr0C-31" value="" style="endArrow=classic;html=1;rounded=0;exitX=1;exitY=1;exitDx=0;exitDy=0;entryX=1;entryY=0;entryDx=0;entryDy=0;" parent="1" source="MSOLa-IoRbTIZg2SJr0C-18" target="MSOLa-IoRbTIZg2SJr0C-19" edge="1">
          <mxGeometry width="50" height="50" relative="1" as="geometry">
            <mxPoint x="585" y="452" as="sourcePoint" />
            <mxPoint x="639" y="399" as="targetPoint" />
          </mxGeometry>
        </mxCell>
        <mxCell id="MSOLa-IoRbTIZg2SJr0C-32" value="" style="endArrow=none;html=1;rounded=0;" parent="1" edge="1">
          <mxGeometry width="50" height="50" relative="1" as="geometry">
            <mxPoint x="377" y="394" as="sourcePoint" />
            <mxPoint x="386" y="394" as="targetPoint" />
          </mxGeometry>
        </mxCell>
        <mxCell id="MSOLa-IoRbTIZg2SJr0C-33" value="超级CPU对指令进行处理" style="text;html=1;align=center;verticalAlign=middle;whiteSpace=wrap;rounded=0;fontSize=10;" parent="1" vertex="1">
          <mxGeometry x="227" y="448" width="164" height="25" as="geometry" />
        </mxCell>
        <mxCell id="MSOLa-IoRbTIZg2SJr0C-34" value="3" style="text;html=1;align=center;verticalAlign=middle;rounded=0;fontColor=#ff0000;" parent="1" vertex="1">
          <mxGeometry x="279" y="427" width="60" height="30" as="geometry" />
        </mxCell>
        <mxCell id="MSOLa-IoRbTIZg2SJr0C-35" value="4" style="text;html=1;align=center;verticalAlign=middle;rounded=0;fontColor=#ff0000;" parent="1" vertex="1">
          <mxGeometry x="500" y="414" width="60" height="30" as="geometry" />
        </mxCell>
        <mxCell id="MSOLa-IoRbTIZg2SJr0C-36" value="处理完的数据再经过网络模块传输至云存储内" style="text;html=1;align=center;verticalAlign=middle;whiteSpace=wrap;rounded=0;" parent="1" vertex="1">
          <mxGeometry x="460" y="440" width="154" height="41" as="geometry" />
        </mxCell>
        <mxCell id="MSOLa-IoRbTIZg2SJr0C-37" value="" style="endArrow=none;html=1;rounded=0;exitX=1;exitY=0;exitDx=0;exitDy=0;entryX=0;entryY=0;entryDx=0;entryDy=0;" parent="1" source="MSOLa-IoRbTIZg2SJr0C-15" target="MSOLa-IoRbTIZg2SJr0C-19" edge="1">
          <mxGeometry width="50" height="50" relative="1" as="geometry">
            <mxPoint x="542" y="397" as="sourcePoint" />
            <mxPoint x="592" y="347" as="targetPoint" />
          </mxGeometry>
        </mxCell>
        <mxCell id="MSOLa-IoRbTIZg2SJr0C-38" value="" style="endArrow=none;html=1;rounded=0;exitX=0;exitY=1;exitDx=0;exitDy=0;entryX=0.999;entryY=0.306;entryDx=0;entryDy=0;entryPerimeter=0;" parent="1" source="MSOLa-IoRbTIZg2SJr0C-19" target="MSOLa-IoRbTIZg2SJr0C-15" edge="1">
          <mxGeometry width="50" height="50" relative="1" as="geometry">
            <mxPoint x="381" y="518" as="sourcePoint" />
            <mxPoint x="464" y="609" as="targetPoint" />
            <Array as="points">
              <mxPoint x="472" y="609" />
            </Array>
          </mxGeometry>
        </mxCell>
        <mxCell id="MSOLa-IoRbTIZg2SJr0C-39" value="5" style="text;html=1;align=center;verticalAlign=middle;rounded=0;fontColor=#ff0000;" parent="1" vertex="1">
          <mxGeometry x="604.5" y="599.5" width="60" height="30" as="geometry" />
        </mxCell>
        <mxCell id="MSOLa-IoRbTIZg2SJr0C-40" value="新数据与旧数据进行反应，形成最终数据" style="text;html=1;align=center;verticalAlign=middle;whiteSpace=wrap;rounded=0;fontSize=11;strokeWidth=1;" parent="1" vertex="1">
          <mxGeometry x="560" y="629.5" width="149" height="57" as="geometry" />
        </mxCell>
        <mxCell id="MSOLa-IoRbTIZg2SJr0C-41" value="" style="endArrow=classic;html=1;rounded=0;exitX=1;exitY=0;exitDx=0;exitDy=0;entryX=0;entryY=0.5;entryDx=0;entryDy=0;" parent="1" source="MSOLa-IoRbTIZg2SJr0C-19" target="MSOLa-IoRbTIZg2SJr0C-17" edge="1">
          <mxGeometry width="50" height="50" relative="1" as="geometry">
            <mxPoint x="531" y="521" as="sourcePoint" />
            <mxPoint x="581" y="471" as="targetPoint" />
          </mxGeometry>
        </mxCell>
        <mxCell id="MSOLa-IoRbTIZg2SJr0C-42" value="再次通过网络模块将最终数据传输至本地主机" style="text;html=1;align=center;verticalAlign=middle;whiteSpace=wrap;rounded=0;" parent="1" vertex="1">
          <mxGeometry x="669" y="448" width="172" height="51" as="geometry" />
        </mxCell>
        <mxCell id="MSOLa-IoRbTIZg2SJr0C-43" value="5" style="text;html=1;align=center;verticalAlign=middle;rounded=0;fontColor=#ff0000;" parent="1" vertex="1">
          <mxGeometry x="725" y="425" width="60" height="30" as="geometry" />
        </mxCell>
        <mxCell id="BEf3ti5QoIXrEqoc_Wu_-2" value="6" style="text;html=1;align=center;verticalAlign=middle;rounded=0;fontColor=#ff0000;" vertex="1" parent="1">
          <mxGeometry x="1030" y="339" width="60" height="30" as="geometry" />
        </mxCell>
        <mxCell id="BEf3ti5QoIXrEqoc_Wu_-5" value="GPU对最终数据进行处理，形成最终画面，输出到显示器上" style="text;html=1;align=center;verticalAlign=middle;whiteSpace=wrap;rounded=0;" vertex="1" parent="1">
          <mxGeometry x="974" y="360" width="172" height="51" as="geometry" />
        </mxCell>
        <mxCell id="BEf3ti5QoIXrEqoc_Wu_-8" value="" style="endArrow=classic;html=1;rounded=0;entryX=1;entryY=1;entryDx=0;entryDy=0;" edge="1" parent="1" target="MSOLa-IoRbTIZg2SJr0C-4">
          <mxGeometry width="50" height="50" relative="1" as="geometry">
            <mxPoint x="820" y="290" as="sourcePoint" />
            <mxPoint x="700" y="430" as="targetPoint" />
          </mxGeometry>
        </mxCell>
        <mxCell id="BEf3ti5QoIXrEqoc_Wu_-9" value="云端" style="text;html=1;align=center;verticalAlign=middle;whiteSpace=wrap;rounded=0;fontColor=#00eeff;fontSize=30;" vertex="1" parent="1">
          <mxGeometry x="212.75" y="279.5" width="192.5" height="48" as="geometry" />
        </mxCell>
      </root>
    </mxGraphModel>
  </diagram>
</mxfile>
